# xmcd
#
# Track frame offsets: 
#        150
#        12620
#        29147
#        44139
#        62348
#        75282
#        89130
#        101812
#        116829
#        132626
#        150791
#
# Disc length: 2221 seconds
#
# Revision: 0
# Processed by: cddbd v1.5.2PL0 Copyright (c) Steve Scherf et al.
# Submitted via: ExactAudioCopy v0.99pb5
#
DISCID=9608ab0b
DTITLE=Craig Campbell - Craig Campbell
DYEAR=2011
DGENRE=Country
TTITLE0=I Bought It
TTITLE1=Family Man
TTITLE2=When I Get It
TTITLE3=My Little Cowboy
TTITLE4=Makes You Wanna Sang
TTITLE5=That Going Away Look (About Her)
TTITLE6=Fish
TTITLE7=Chillaxin'
TTITLE8=That's Music To Me
TTITLE9=You Probably Ain't
TTITLE10=All Night To Get There
EXTD=
EXTT0=
EXTT1=
EXTT2=
EXTT3=
EXTT4=
EXTT5=
EXTT6=
EXTT7=
EXTT8=
EXTT9=
EXTT10=
PLAYORDER=
